
<svg xmlns="http://www.w3.org/2000/svg" version="1.1" id="svg2" xml:space="preserve" width="609.138" height="300" viewBox="0 0 609.138 300"><defs id="defs6"><clipPath clipPathUnits="userSpaceOnUse" id="clipPath20"><path d="M 0,438.667 H 466.667 V 0 H 0 Z" id="path18"></path></clipPath></defs><g id="g1084" transform="matrix(4.9493435,0,0,-4.9493435,-284.03936,2119.8865)"><g id="g1042"><g id="g604" transform="translate(62.0557,390.8926)"><path d="m 0,0 c -2.102,0 -3.793,1.467 -3.793,4.495 0,3.028 1.691,4.494 3.793,4.494 0.846,0 1.627,-0.192 2.076,-0.469 L 1.494,7.163 C 1.23,7.342 0.754,7.511 0.225,7.511 c -1.229,0 -2.101,-1.033 -2.101,-3.004 0,-1.97 0.872,-2.992 2.101,-2.992 0.529,0 1.005,0.156 1.269,0.336 L 2.076,0.47 C 1.627,0.193 0.874,0 0,0" style="fill:#5c2b0d;fill-opacity:1;fill-rule:nonzero;stroke:none" id="path606"></path></g><g id="g608" transform="translate(70.2646,391.0371)"><path d="M 0,0 V 3.714 H -2.935 V 0 h -1.863 v 8.7 h 1.863 V 5.107 H 0 V 8.7 H 1.863 V 0 Z" style="fill:#5c2b0d;fill-opacity:1;fill-rule:nonzero;stroke:none" id="path610"></path></g><g id="g612" transform="translate(73.8999,391.0371)"><path d="M 0,0 V 8.7 H 5.09 V 7.283 H 1.824 V 5.107 H 4.772 V 3.714 H 1.824 V 1.418 H 5.09 V 0 Z" style="fill:#5c2b0d;fill-opacity:1;fill-rule:nonzero;stroke:none" id="path614"></path></g><g id="g616" transform="translate(83.6108,398.3789)"><path d="m 0,0 c -1.217,0 -1.836,-1.201 -1.836,-2.991 0,-1.792 0.619,-2.992 1.836,-2.992 1.217,0 1.837,1.2 1.837,2.992 C 1.837,-1.201 1.217,0 0,0 m 0,-7.486 c -2.511,0 -3.701,1.96 -3.701,4.495 0,2.534 1.19,4.494 3.701,4.494 2.513,0 3.702,-1.96 3.702,-4.494 0,-2.535 -1.189,-4.495 -3.702,-4.495" style="fill:#5c2b0d;fill-opacity:1;fill-rule:nonzero;stroke:none" id="path618"></path></g><g id="g620" transform="translate(94.1035,391.0371)"><path d="m 0,0 -3.425,5.156 c -0.316,0.48 -0.567,1.021 -0.567,1.021 H -4.02 c 0,0 0.028,-0.589 0.028,-1.13 V 0 h -1.587 v 8.7 h 1.599 l 3.345,-5.023 c 0.304,-0.469 0.569,-1.021 0.569,-1.021 h 0.025 c 0,0 -0.025,0.613 -0.025,1.166 V 8.7 H 1.532 V 0 Z" style="fill:#5c2b0d;fill-opacity:1;fill-rule:nonzero;stroke:none" id="path622"></path></g><g id="g624" transform="translate(101.1973,390.8926)"><path d="m 0,0 c -2.671,0 -4.35,1.743 -4.35,4.495 0,2.752 1.786,4.494 4.508,4.494 0.979,0 1.905,-0.204 2.393,-0.469 L 1.969,7.199 c -0.37,0.192 -0.992,0.347 -1.745,0.347 -1.506,0 -2.71,-0.961 -2.71,-3.039 0,-2.079 1.125,-3.075 2.354,-3.075 0.462,0 0.846,0.059 1.019,0.131 V 3.991 H -0.582 V 5.276 H 2.63 V 0.47 C 2.116,0.217 1.137,0 0,0" style="fill:#5c2b0d;fill-opacity:1;fill-rule:nonzero;stroke:none" id="path626"></path></g><g id="g628" transform="translate(104.2207,388.4062)"><path d="m 0,0 v 1.455 c 1.004,0.226 1.665,0.863 1.665,2.138 v 7.738 H 3.528 V 3.593 C 3.528,1.382 2.195,0.252 0,0" style="fill:#5c2b0d;fill-opacity:1;fill-rule:nonzero;stroke:none" id="path630"></path></g><g id="g632" transform="translate(112.7856,390.918)"><path d="m 0,0 c -1.864,0 -3.265,0.972 -3.265,2.691 v 6.128 h 1.866 V 2.678 c 0,-0.768 0.621,-1.224 1.399,-1.224 0.781,0 1.401,0.456 1.401,1.224 V 8.819 H 3.265 V 2.691 C 3.265,0.972 1.865,0 0,0" style="fill:#5c2b0d;fill-opacity:1;fill-rule:nonzero;stroke:none" id="path634"></path></g><g id="g636" transform="translate(62.0557,378.5542)"><path d="m 0,0 c -2.102,0 -3.793,1.466 -3.793,4.494 0,3.029 1.691,4.495 3.793,4.495 0.846,0 1.627,-0.193 2.076,-0.47 L 1.494,7.163 C 1.23,7.342 0.754,7.511 0.225,7.511 c -1.229,0 -2.101,-1.033 -2.101,-3.004 0,-1.972 0.872,-2.993 2.101,-2.993 0.529,0 1.005,0.156 1.269,0.336 L 2.076,0.469 C 1.627,0.193 0.874,0 0,0" style="fill:#5c2b0d;fill-opacity:1;fill-rule:nonzero;stroke:none" id="path638"></path></g><path d="m 65.467,387.398 h 1.863 v -8.7 h -1.863 z" style="fill:#5c2b0d;fill-opacity:1;fill-rule:nonzero;stroke:none" id="path640"></path><g id="g642" transform="translate(72.2847,385.981)"><path d="M 0,0 V -7.283 H -1.864 V 0 H -3.886 V 1.417 H 2.008 V 0 Z" style="fill:#5c2b0d;fill-opacity:1;fill-rule:nonzero;stroke:none" id="path644"></path></g><g id="g646" transform="translate(79.2607,382.1108)"><path d="M 0,0 V -3.413 H -1.863 V 0 l -2.843,5.287 h 2.01 l 1.744,-3.58 h 0.027 l 1.758,3.58 h 2.009 z" style="fill:#5c2b0d;fill-opacity:1;fill-rule:nonzero;stroke:none" id="path648"></path></g><g id="g650" transform="translate(117.7461,427.3389)"><path d="m 0,0 v -21.437 h 1.025 c 1.142,0 2.073,0.853 2.073,1.905 V 0 Z" style="fill:#5c2b0d;fill-opacity:1;fill-rule:nonzero;stroke:none" id="path652"></path></g><g id="g654" transform="translate(73.2739,422.9731)"><path d="M 0,0 H -4.311 V -2.048 H 0 v -5.601 h 1.026 c 1.14,0 2.073,0.853 2.073,1.904 V 4.366 H 0 Z" style="fill:#5c2b0d;fill-opacity:1;fill-rule:nonzero;stroke:none" id="path656"></path></g><g id="g658" transform="translate(110.7725,427.1826)"><path d="m 0,0 h -3.094 v -5.612 c 0.004,-0.34 -0.05,-1.847 -0.681,-3.103 -0.655,-1.284 -1.753,-2.565 -4.651,-3.928 l 1.329,-1.777 c 2.483,0.845 4.483,2.368 5.55,3.821 1.063,-1.453 3.066,-2.976 5.55,-3.821 l 1.326,1.777 C 2.433,-11.28 1.333,-9.999 0.68,-8.715 0.048,-7.459 -0.002,-5.952 0,-5.612 Z" style="fill:#5c2b0d;fill-opacity:1;fill-rule:nonzero;stroke:none" id="path660"></path></g><g id="g662" transform="translate(79.9214,412.8447)"><path d="m 0,0 h 8.788 v -7.143 h 1.076 c 1.2,0 2.177,0.853 2.177,1.904 V 0 h 8.786 V 2.047 H 0 Z" style="fill:#5c2b0d;fill-opacity:1;fill-rule:nonzero;stroke:none" id="path664"></path></g><g id="g666" transform="translate(91.9102,424.7935)"><path d="M 0,0 H 5.923 V 2.047 H -9.171 V 0 h 5.918 v -0.145 c -0.01,-0.224 -0.059,-1.63 -0.953,-2.756 -0.898,-1.12 -2.583,-2.425 -6.238,-3.065 l 1.06,-2.179 c 3.851,0.734 6.368,2.16 7.758,3.787 1.391,-1.627 3.909,-3.053 7.76,-3.787 l 1.057,2.179 C 3.54,-5.326 1.853,-4.021 0.955,-2.901 0.059,-1.772 0.011,-0.361 0,-0.143 Z" style="fill:#5c2b0d;fill-opacity:1;fill-rule:nonzero;stroke:none" id="path668"></path></g><g id="g670" transform="translate(69.9771,407.3682)"><path d="M 0,0 C -1.506,0 -2.727,1.242 -2.727,2.775 -2.727,4.31 -1.506,5.553 0,5.553 1.506,5.553 2.726,4.31 2.726,2.775 2.726,1.242 1.506,0 0,0 m 0,7.602 c -3.303,0 -5.98,-2.161 -5.98,-4.827 0,-2.664 2.677,-4.825 5.98,-4.825 3.302,0 5.979,2.161 5.979,4.825 0,2.666 -2.677,4.827 -5.979,4.827" style="fill:#5c2b0d;fill-opacity:1;fill-rule:nonzero;stroke:none" id="path672"></path></g><g id="g674" transform="translate(69.9463,415.8857)"><path d="M 0,0 1.271,1.974 C -1.72,3.234 -2.848,4.438 -3.464,5.7 -4.023,6.875 -4.088,8.009 -4.095,8.666 h 4.378 v 2.048 h -4.378 v 1.717 h -3.094 v -1.717 h -4.382 V 8.666 h 4.379 C -7.199,8.009 -7.264,6.875 -7.823,5.7 -8.439,4.438 -9.566,3.234 -12.557,1.974 L -11.289,0 c 2.89,1.089 4.726,2.618 5.645,4.137 C -4.725,2.618 -2.886,1.089 0,0" style="fill:#5c2b0d;fill-opacity:1;fill-rule:nonzero;stroke:none" id="path676"></path></g><g id="g678" transform="translate(120.8428,367.7026)"><path d="m 0,0 h 15.855 c 1.403,0 2.808,0.066 4.208,0.201 l -10e-4,14.155 c -1.403,-0.2 -2.82,-0.303 -4.237,-0.303 -0.574,0 -1.141,0.017 -1.712,0.049 -0.032,0.57 -0.049,1.14 -0.049,1.711 0.007,7.64 2.892,15.212 8.715,21.04 3.711,3.708 8.13,6.217 12.825,7.559 v 14.43 C 27.268,57.256 19.283,53.235 12.842,46.791 4.367,38.323 0.061,27.186 0,16.084 Z M 43.55,59.633 C 42.186,59.625 40.828,59.539 39.464,59.404 V 45.246 c 1.451,0.212 2.914,0.323 4.378,0.323 0.565,0 1.127,-0.015 1.69,-0.048 0.033,-0.569 0.048,-1.139 0.048,-1.709 C 45.572,36.171 42.689,28.597 36.866,22.768 V 22.77 C 33.123,19.029 28.661,16.509 23.926,15.178 V 0.754 c 8.377,1.57 16.408,5.604 22.878,12.076 l 0.002,10e-4 c 8.539,8.538 12.821,19.792 12.815,30.981 v 15.821 z" style="fill:#7fbe26;fill-opacity:1;fill-rule:nonzero;stroke:none" id="path680"></path></g></g></g></svg>
